<svg version="1.1" xmlns="http://www.w3.org/2000/svg" width="16" height="16">
    <path
        d="M0 0 C1.2065625 0.0309375 1.2065625 0.0309375 2.4375 0.0625 C2.4375 1.0525 2.4375 2.0425 2.4375 3.0625 C1.4475 3.5575 1.4475 3.5575 0.4375 4.0625 C2.7475 4.3925 5.0575 4.7225 7.4375 5.0625 C7.4375 7.7025 7.4375 10.3425 7.4375 13.0625 C8.0975 13.0625 8.7575 13.0625 9.4375 13.0625 C9.4375 14.0525 9.4375 15.0425 9.4375 16.0625 C4.1575 16.0625 -1.1225 16.0625 -6.5625 16.0625 C-6.5625 15.0725 -6.5625 14.0825 -6.5625 13.0625 C-5.9025 13.0625 -5.2425 13.0625 -4.5625 13.0625 C-4.5625 11.4125 -4.5625 9.7625 -4.5625 8.0625 C-5.2225 8.0625 -5.8825 8.0625 -6.5625 8.0625 C-6.5625 7.0725 -6.5625 6.0825 -6.5625 5.0625 C-5.9025 5.0625 -5.2425 5.0625 -4.5625 5.0625 C-4.3459375 4.1034375 -4.3459375 4.1034375 -4.125 3.125 C-3.30589691 0.12162199 -3.19313651 0.07788138 0 0 Z M-0.5625 8.0625 C-0.5625 9.7125 -0.5625 11.3625 -0.5625 13.0625 C0.7575 13.0625 2.0775 13.0625 3.4375 13.0625 C3.4375 11.4125 3.4375 9.7625 3.4375 8.0625 C2.1175 8.0625 0.7975 8.0625 -0.5625 8.0625 Z "
        fill="#757185" transform="translate(6.5625,-0.0625)" />
    <path d="M0 0 C1.32 0 2.64 0 4 0 C4 0.99 4 1.98 4 3 C2.68 3 1.36 3 0 3 C0 2.01 0 1.02 0 0 Z " fill="#757185"
        transform="translate(10,0)" />
</svg>