<?xml version="1.0" encoding="UTF-8"?>
<svg version="1.1" xmlns="http://www.w3.org/2000/svg" width="512" height="512">
<path d="M0 0 C1.31903824 -0.0071553 2.63807648 -0.01431061 3.99708557 -0.02168274 C5.457443 -0.02452288 6.91780069 -0.02723462 8.37815857 -0.02983093 C9.91753288 -0.03609819 11.45690569 -0.04274523 12.99627686 -0.04974365 C18.05121309 -0.07076093 23.10614953 -0.08114609 28.16111755 -0.09111023 C29.9042964 -0.09515911 31.64747509 -0.09927607 33.39065361 -0.10346031 C41.5839072 -0.12250942 49.77715181 -0.13673921 57.97042328 -0.14507228 C67.41159376 -0.1548342 76.85252914 -0.18112751 86.29361683 -0.22157317 C93.60081727 -0.25179687 100.90795058 -0.2665472 108.21521229 -0.26985329 C112.57457636 -0.27219728 116.9336892 -0.28107194 121.29298592 -0.30631447 C125.39953639 -0.32970901 129.50567225 -0.33378312 133.61227226 -0.32355309 C135.11218526 -0.32306031 136.61211945 -0.32930375 138.11196899 -0.34310913 C150.64765682 -0.45195437 161.12344758 1.4384243 170.5947113 10.14717102 C179.69248635 19.13308818 183.5721731 28.62957343 183.8491869 41.37760735 C183.86142393 43.81288085 183.86276899 46.24822433 183.85540771 48.68351746 C183.8584324 50.04463158 183.86232347 51.405744 183.86700028 52.76685345 C183.87724818 56.4878315 183.87510669 60.20871285 183.87081969 63.92969871 C183.86834662 67.95024885 183.87737382 71.97077607 183.88485718 75.99131775 C183.89759001 83.86053266 183.89939964 91.72971342 183.89705691 99.5989369 C183.89527204 105.9968967 183.89702703 112.39484615 183.90128136 118.79280472 C183.90187655 119.70427857 183.90247173 120.61575241 183.90308496 121.55484668 C183.90429674 123.40665983 183.90551088 125.25847298 183.90672734 127.11028613 C183.91759739 144.46670931 183.91544289 161.82311304 183.90934249 179.17953731 C183.90417363 195.04688088 183.91542893 210.91416306 183.93444071 226.78149448 C183.953827 243.08678726 183.96207373 259.39205101 183.95831746 275.69735539 C183.95640664 284.84644855 183.95888138 293.99548946 183.973032 303.14457321 C183.98495682 310.93317847 183.98633832 318.7216993 183.97424183 326.51030575 C183.96836093 330.48130843 183.9672318 334.45215678 183.97924423 338.42314911 C183.99012926 342.0638629 183.98696887 345.70429397 183.97298255 349.34499468 C183.9690998 351.27403806 183.97986128 353.20309412 183.99127942 355.13210762 C183.90809271 368.59002295 180.57725176 379.76780895 171.4697113 389.89717102 C164.22965058 396.73230665 154.99285588 400.25782199 145.18942261 400.29434204 C143.87038437 400.30149734 142.55134613 400.30865265 141.19233704 400.31602478 C139.73197961 400.31886492 138.27162192 400.32157666 136.81126404 400.32417297 C135.27188972 400.33044023 133.73251692 400.33708727 132.19314575 400.34408569 C127.13820952 400.36510297 122.08327307 400.37548813 117.02830505 400.38545227 C115.28512621 400.38950115 113.54194752 400.39361811 111.798769 400.39780235 C103.60551541 400.41685146 95.4122708 400.43108125 87.21899933 400.43941432 C77.77782884 400.44917625 68.33689347 400.47546956 58.89580578 400.51591522 C51.58860533 400.54613891 44.28147203 400.56088924 36.97421032 400.56419533 C32.61484625 400.56653932 28.25573341 400.57541399 23.89643669 400.60065651 C19.78988622 400.62405105 15.68375035 400.62812516 11.57715034 400.61789513 C10.07723735 400.61740235 8.57730315 400.62364579 7.07745361 400.63745117 C-5.45823421 400.74629642 -15.93402498 398.85591775 -25.4052887 390.14717102 C-34.50306374 381.16125386 -38.3827505 371.66476861 -38.65976429 358.9167347 C-38.67200132 356.48146119 -38.67334638 354.04611771 -38.66598511 351.61082458 C-38.66900979 350.24971046 -38.67290086 348.88859804 -38.67757767 347.52748859 C-38.68782558 343.80651054 -38.68568408 340.0856292 -38.68139708 336.36464334 C-38.67892401 332.34409319 -38.68795121 328.32356597 -38.69543457 324.30302429 C-38.70816741 316.43380938 -38.70997703 308.56462862 -38.70763431 300.69540514 C-38.70584943 294.29744534 -38.70760443 287.89949589 -38.71185875 281.50153732 C-38.71245394 280.59006347 -38.71304913 279.67858963 -38.71366235 278.73949536 C-38.71487414 276.88768221 -38.71608827 275.03586906 -38.71730473 273.18405591 C-38.72817478 255.82763273 -38.72602029 238.471229 -38.71991988 221.11480473 C-38.71475102 205.24746116 -38.72600632 189.38017898 -38.7450181 173.51284756 C-38.76440439 157.20755478 -38.77265113 140.90229103 -38.76889485 124.59698665 C-38.76698403 115.44789349 -38.76945877 106.29885258 -38.78360939 97.14976883 C-38.79553422 89.36116357 -38.79691571 81.57264274 -38.78481922 73.78403629 C-38.77893832 69.81303361 -38.77780919 65.84218526 -38.78982162 61.87119293 C-38.80070665 58.23047914 -38.79754627 54.59004807 -38.78355994 50.94934736 C-38.7796772 49.02030398 -38.79043867 47.09124792 -38.80185682 45.16223443 C-38.7186701 31.70431909 -35.38782916 20.52653309 -26.2802887 10.39717102 C-19.04022797 3.56203539 -9.80343327 0.03652005 0 0 Z M-3.9052887 35.27217102 C-5.65706378 38.06867096 -5.65706378 38.06867096 -5.3427887 41.27217102 C-4.38586563 44.20673508 -3.93181078 45.43274532 -1.4052887 47.14717102 C0.95933622 48.15352348 0.95933622 48.15352348 3.5947113 48.14717102 C7.30732358 46.39603577 7.30732358 46.39603577 9.5947113 43.14717102 C9.97974507 39.60486041 10.0140709 37.7845976 8.0322113 34.77217102 C3.70670326 31.88849899 0.06669182 31.89598758 -3.9052887 35.27217102 Z M44.11424255 100.75654602 C42.95988708 102.0945929 42.95988708 102.0945929 41.7822113 103.45967102 C36.63158469 109.030414 31.56670498 109.3297409 24.43455505 109.81513977 C13.7627617 110.73792963 5.46892317 116.75389084 -1.6552887 124.45967102 C-8.4025424 132.85625341 -12.02193686 143.14820118 -11.65138245 153.95967102 C-10.35832372 165.45352636 -6.11751433 175.40297046 2.5947113 183.14717102 C3.2547113 183.80717102 3.9147113 184.46717102 4.5947113 185.14717102 C7.33956723 185.29224797 9.97951673 185.33369525 12.7197113 185.27217102 C13.47381287 185.26314758 14.22791443 185.25412415 15.00486755 185.24482727 C16.86828385 185.22123972 18.73153723 185.18536821 20.5947113 185.14717102 C20.5947113 184.48717102 20.5947113 183.82717102 20.5947113 183.14717102 C21.92804464 182.48050435 23.26137797 181.81383769 24.5947113 181.14717102 C25.5640863 180.63154602 26.5334613 180.11592102 27.5322113 179.58467102 C34.47974098 176.32358566 41.16926574 176.83126927 48.5947113 178.14717102 C48.60405701 177.00763977 48.61340271 175.86810852 48.62303162 174.69404602 C48.66312185 170.43698574 48.72893225 166.18063375 48.80223083 161.92402649 C48.83033061 160.08720549 48.85159948 158.25026605 48.8657074 156.4132843 C48.88729028 153.76146788 48.93401629 151.11105917 48.9853363 148.45967102 C48.98656494 147.64788391 48.98779358 146.8360968 48.98905945 145.99971008 C49.15566107 139.40779935 50.9792255 134.11827112 55.3759613 129.12373352 C56.22674255 128.45471008 56.22674255 128.45471008 57.0947113 127.77217102 C57.6618988 127.31068665 58.2290863 126.84920227 58.8134613 126.37373352 C64.31035494 122.58859185 70.19684007 121.65937897 76.8134613 122.39326477 C84.40134476 124.04217021 89.14256795 128.08730923 93.5947113 134.14717102 C95.99566355 138.72980327 95.93818939 143.11160917 96.0087738 148.16670227 C96.02813995 149.02527328 96.0475061 149.8838443 96.06745911 150.76843262 C96.12702686 153.49874576 96.17354864 156.22910159 96.2197113 158.95967102 C96.2579121 160.81580875 96.29696505 162.67192914 96.3368988 164.5280304 C96.43270957 169.06760246 96.51682451 173.60725749 96.5947113 178.14717102 C97.91644348 178.01931213 97.91644348 178.01931213 99.26487732 177.88887024 C100.4268866 177.78590637 101.58889587 177.6829425 102.78611755 177.57685852 C104.51003723 177.41806213 104.51003723 177.41806213 106.26878357 177.25605774 C110.83270234 177.10664074 114.6163783 177.90982173 118.5947113 180.14717102 C119.4403363 180.99795227 120.2859613 181.84873352 121.1572113 182.72529602 C125.43077428 186.38796598 130.28298014 185.87859144 135.6572113 185.77217102 C137.12770935 185.80117493 137.12770935 185.80117493 138.62791443 185.83076477 C143.32930741 185.79884764 145.80282221 185.74286679 149.63768005 182.85810852 C154.88710767 175.58644631 157.67511621 168.25344091 156.5947113 159.14717102 C154.28502215 149.60231103 149.75614601 142.68141297 141.5322113 137.27217102 C139.11022766 135.80771579 137.25596283 135.06417764 134.4697113 134.38154602 C131.5947113 133.14717102 131.5947113 133.14717102 130.37986755 130.52998352 C130.14139099 129.4549054 129.90291443 128.37982727 129.6572113 127.27217102 C125.71893302 112.60492062 117.29860806 102.49895375 104.47361755 94.68623352 C85.98834323 84.80401089 59.44881349 84.62506037 44.11424255 100.75654602 Z M68.8447113 139.20967102 C65.43560086 142.1452939 64.7000856 144.92842636 64.3162384 149.36795044 C64.30291473 150.58262497 64.28959106 151.7972995 64.27586365 153.04878235 C64.26079521 154.0593721 64.26079521 154.0593721 64.24542236 155.09037781 C64.21468696 157.30331112 64.19758252 159.51612398 64.1806488 161.72920227 C64.16192935 163.26906361 64.14235536 164.80891478 64.1219635 166.34875488 C64.07071825 170.39119967 64.03105199 174.43367768 63.99382019 178.47627258 C63.95373271 182.60558745 63.90266205 186.734765 63.8525238 190.8639679 C63.75585464 198.958275 63.67142123 207.05265027 63.5947113 215.14717102 C62.98474304 214.51625549 62.37477478 213.88533997 61.74632263 213.23530579 C59.47135415 210.89203421 57.18754563 208.55814196 54.89720154 206.22993469 C53.90914906 205.22180709 52.92472137 204.2101132 51.94407654 203.19477844 C50.53109649 201.73309964 49.10543354 200.28488339 47.67674255 198.83857727 C46.82314148 197.96402893 45.96954041 197.08948059 45.09007263 196.18843079 C42.43977108 194.02042655 40.98722176 193.32131731 37.5947113 193.14717102 C35.31152751 194.28876292 33.40458448 195.33729785 31.5947113 197.14717102 C30.98063194 200.03334404 30.82864152 201.35717565 31.5947113 204.14717102 C33.16774489 206.35830125 33.16774489 206.35830125 35.2978363 208.55732727 C36.1149408 209.43461487 36.93204529 210.31190247 37.77391052 211.21577454 C42.52184288 216.17646352 47.35305083 221.05366922 52.2172699 225.90010071 C53.99141271 227.66880591 55.76004646 229.44289755 57.52830505 231.21748352 C58.66209853 232.35061741 59.79620151 233.48344171 60.9306488 234.61592102 C61.71815018 235.40645874 61.71815018 235.40645874 62.52156067 236.21296692 C66.81206969 240.63940624 66.81206969 240.63940624 72.49900818 242.50117493 C76.28453901 242.06828694 77.41499464 241.11284105 80.1259613 238.48310852 C80.98576599 237.66036438 81.84557068 236.83762024 82.73143005 235.98994446 C83.68674367 235.04324707 84.64112463 234.09560789 85.5947113 233.14717102 C86.66319379 232.10268538 87.73222509 231.05876092 88.80174255 230.01533508 C91.66971374 227.20416882 94.51315273 224.36950395 97.34764099 221.52461243 C99.11634619 219.75046962 100.89043783 217.98183587 102.6650238 216.21357727 C103.79815769 215.0797838 104.93098199 213.94568081 106.0634613 212.81123352 C106.85399902 212.02373215 106.85399902 212.02373215 107.6605072 211.22032166 C112.26530255 206.70180689 112.26530255 206.70180689 113.9072113 200.64717102 C113.86361787 197.28637457 113.86361787 197.28637457 112.4697113 195.27217102 C109.55768297 193.52495402 108.05195146 193.01670913 104.5947113 193.14717102 C98.57181287 196.73222961 93.74433243 202.98982757 88.80955505 207.92842102 C88.11471008 208.62354797 87.41986511 209.31867493 86.70396423 210.03486633 C85.00073718 211.73882533 83.29765688 213.44293073 81.5947113 215.14717102 C81.58884506 214.29605743 81.58297882 213.44494385 81.57693481 212.56803894 C81.51895529 204.53470932 81.44684844 196.50165617 81.35899639 188.4685955 C81.31432898 184.33901305 81.27506503 180.20952841 81.24827576 176.07978821 C81.2222063 172.09198606 81.18177861 168.10456109 81.13152504 164.11699295 C81.11488085 162.59806649 81.10335133 161.07907482 81.0970974 159.56007004 C81.08742923 157.42708339 81.05934005 155.29505634 81.02708435 153.16230774 C81.01042976 151.34362686 81.01042976 151.34362686 80.99343872 149.48820496 C80.54776153 145.75376745 79.57406527 143.33203962 77.5947113 140.14717102 C74.09868354 138.24715593 72.58808227 137.7633686 68.8447113 139.20967102 Z M11.7197113 355.89717102 C10.14742311 359.04174742 10.60534425 360.82572447 11.5947113 364.14717102 C13.60088358 366.91759941 15.31805459 367.49426298 18.5947113 368.14717102 C20.10851989 368.23711876 21.62570634 368.27765151 23.1421814 368.28088379 C24.04918289 368.28514877 24.95618439 368.28941376 25.89067078 368.29380798 C27.37213593 368.2931282 27.37213593 368.2931282 28.88352966 368.29243469 C29.92946793 368.2957933 30.97540619 368.29915192 32.05303955 368.3026123 C35.51355677 368.31211809 38.97402559 368.31406516 42.43455505 368.31513977 C44.83824687 368.31835232 47.24193848 368.32171639 49.64562988 368.32522583 C54.68522088 368.33121596 59.72479473 368.33306582 64.76438904 368.33247375 C71.22528756 368.33237207 77.68607632 368.346031 84.14694881 368.36324596 C89.11144517 368.37435774 94.07591492 368.37639322 99.04042244 368.37586403 C101.42267295 368.37704513 103.80492412 368.38147415 106.1871624 368.3891964 C109.51701961 368.39898066 112.84663744 368.39612443 116.17649841 368.39009094 C117.16211761 368.39571045 118.14773682 368.40132996 119.16322327 368.40711975 C126.96324838 368.37554919 126.96324838 368.37554919 133.4697113 364.39717102 C135.0419995 361.25259462 134.58407836 359.46861757 133.5947113 356.14717102 C131.58853902 353.37674263 129.87136801 352.80007906 126.5947113 352.14717102 C125.08090272 352.05722328 123.56371627 352.01669054 122.04724121 352.01345825 C121.14023972 352.00919327 120.23323822 352.00492828 119.29875183 352.00053406 C117.81728668 352.00121384 117.81728668 352.00121384 116.30589294 352.00190735 C115.25995468 351.99854874 114.21401642 351.99519012 113.13638306 351.99172974 C109.67586584 351.98222395 106.21539702 351.98027688 102.75486755 351.97920227 C100.35117574 351.97598972 97.94748412 351.97262565 95.54379272 351.96911621 C90.50420173 351.96312608 85.46462788 351.96127622 80.42503357 351.96186829 C73.96413505 351.96196997 67.50334628 351.94831104 61.04247379 351.93109608 C56.07797743 351.9199843 51.11350769 351.91794882 46.14900017 351.91847801 C43.76674966 351.91729691 41.38449849 351.91286789 39.00226021 351.90514565 C35.67240299 351.89536139 32.34278516 351.89821761 29.01292419 351.9042511 C28.02730499 351.89863159 27.04168579 351.89301208 26.02619934 351.88722229 C18.22617422 351.91879285 18.22617422 351.91879285 11.7197113 355.89717102 Z " fill="#ffffff" transform="translate(183.40528869628906,55.85282897949219)"/>
</svg>
